<?xml version="1.0" encoding="UTF-8"?>
<svg width="42px" height="41px" viewBox="0 0 42 41" version="1.1" xmlns="http://www.w3.org/2000/svg" xmlns:xlink="http://www.w3.org/1999/xlink">
    <!-- Generator: Sketch 51.2 (57519) - http://www.bohemiancoding.com/sketch -->
    <title>update-icon</title>
    <desc>Created with Sketch.</desc>
    <defs></defs>
    <g id="Build" stroke="none" stroke-width="1" fill="none" fill-rule="evenodd">
        <g id="Home-Copy" transform="translate(-675.000000, -821.000000)">
            <g id="Group-9" transform="translate(650.000000, 795.000000)">
                <g id="Group-3-Copy" transform="translate(24.000000, 24.000000)">
                    <g id="update-icon">
                        <rect id="bounds" x="0" y="0" width="44" height="44"></rect>
                        <g id="icon" transform="translate(21.993142, 22.519995) rotate(-3.000000) translate(-21.993142, -22.519995) translate(1.993142, 3.019995)" fill-rule="nonzero" stroke="#000000" stroke-width="1.5">
                            <path d="M27.4705243,9.25202073 C27.4207814,9.21987475 27.3716279,9.1861863 27.3231241,9.15094621 C21.495197,4.91670929 13.3747981,6.15827931 9.18570562,11.9240705 C4.99661313,17.6898616 6.32515112,25.7964861 12.1530783,30.0307231 C17.9810054,34.26496 26.1014043,33.02339 30.2904968,27.2575988 C31.3144972,25.8481832 33.2994835,25.5446883 34.724088,26.579724 C36.1486924,27.6147597 36.4734461,29.596379 35.4494457,31.0057946 C29.2123525,39.590417 17.1219808,41.4389768 8.44484484,35.1346685 C-0.232291142,28.8303602 -2.21033659,16.7604971 4.02675667,8.17587466 C10.2638499,-0.408747739 22.3542216,-2.25730755 31.0313575,4.04700076 C31.2016648,4.17073624 31.3562536,4.30799982 31.4946986,4.45619664 L34.4166871,0.973906361 C34.8284891,0.483139765 35.5601656,0.419126369 36.0509322,0.830928438 C36.2416398,0.990951135 36.3758065,1.20808191 36.4336038,1.45023091 L39.5576512,14.5388326 C39.7063865,15.1619784 39.3218009,15.7877116 38.6986551,15.9364468 C38.5878557,15.962893 38.473765,15.9728746 38.3600566,15.9660704 L24.927815,15.162296 C24.2883086,15.1240285 23.8009082,14.5745842 23.8391758,13.9350778 C23.8540462,13.6865712 23.9484703,13.4494413 24.1084929,13.2587337 L27.4705243,9.25202073 Z" id="Combined-Shape"></path>
                        </g>
                    </g>
                </g>
            </g>
        </g>
    </g>
</svg>