<?xml version="1.0" encoding="UTF-8"?>
<svg width="304px" height="366px" viewBox="0 0 304 366" version="1.1" xmlns="http://www.w3.org/2000/svg" xmlns:xlink="http://www.w3.org/1999/xlink">
    <!-- Generator: Sketch 51.2 (57519) - http://www.bohemiancoding.com/sketch -->
    <title>Character</title>
    <desc>Created with Sketch.</desc>
    <defs>
        <linearGradient x1="50%" y1="0%" x2="50%" y2="100%" id="linearGradient-1">
            <stop stop-color="#FFFFFF" offset="0%"></stop>
            <stop stop-color="#FFFFFF" offset="100%"></stop>
        </linearGradient>
    </defs>
    <g id="Build" stroke="none" stroke-width="1" fill="none" fill-rule="evenodd">
        <g id="Artboard" transform="translate(-25.000000, -31.000000)">
            <g id="Character">
                <path d="M333.475465,409.48903 C333.436556,409.490389 333.436556,409.490389 333.244446,409.497097 C332.976951,409.506438 332.976951,409.506438 332.561117,409.52096 C331.510591,409.557645 331.510591,409.557645 329.895892,409.614031 C325.849418,409.755337 325.849418,409.755337 319.779708,409.967296 C304.838882,410.489041 304.838882,410.489041 283.672713,411.22818 C233.869961,412.967331 233.869961,412.967331 174.106658,415.054311 C114.343355,417.141292 114.343355,417.141292 64.5406031,418.880442 C43.3744335,419.619581 43.3744335,419.619581 28.4336078,420.141326 C22.3638974,420.353285 22.3638974,420.353285 18.3174238,420.494591 C15.3603854,420.597853 15.3603854,420.597853 14.737851,420.619593 L10.8152086,420.756574 L13.4993139,417.892754 C25.9991754,404.555962 33.5740424,396.899336 42.289268,389.153176 C53.4146182,379.264879 64.4476445,371.244481 76.4847042,364.594454 C104.59103,349.066756 138.250912,341.134186 182.199853,341.134186 C225.990831,341.134186 262.840861,349.087163 290.581167,363.135326 C314.611996,375.304947 330.45194,391.581263 334.976652,407.425161 L335.54541,409.416746 L333.475465,409.48903 Z" id="Body" stroke="#252525" stroke-width="3.24000026" fill="url(#linearGradient-1)" fill-rule="nonzero" transform="translate(174.050121, 380.877383) rotate(2.000000) translate(-174.050121, -380.877383) "></path>
                <g id="Group-3" transform="translate(180.335007, 192.664922) rotate(8.000000) translate(-180.335007, -192.664922) translate(23.335007, 21.164922)" fill-rule="nonzero">
                    <g id="Group-2" transform="translate(156.907428, 171.288911) scale(-1, 1) rotate(4.000000) translate(-156.907428, -171.288911) translate(11.407428, 9.788911)">
                        <path d="M289.887136,131.141884 C289.887136,142.821131 279.521752,141.523437 277.362297,152.337554 C275.202842,163.584237 291.6147,163.584237 289.887136,173.96579 C288.159572,184.347342 276.498515,181.31939 272.179605,190.835813 C267.860695,200.352237 282.113098,205.975578 278.226079,215.059437 C274.33906,224.143295 262.678003,217.654825 256.631529,225.873554 C250.153164,234.092284 262.246112,243.176142 255.767747,250.962307 C249.289382,258.748472 240.219671,247.069225 232.013742,254.85539 C223.807813,262.641554 230.718069,271.725413 224.239704,278.646448 C217.76134,285.134919 204.80461,269.995154 200.053809,275.618495 C195.303008,281.241837 195.734899,294.651342 186.233297,295.949037 C176.731695,297.246731 174.140349,283.837225 163.774965,286.000048 C153.409581,288.162872 156.000927,299.842119 144.771761,301.572378 C133.542596,303.302637 136.997723,287.297742 125.768558,285.567484 C114.539392,283.837225 112.811828,296.814166 103.310226,295.083907 C93.808624,292.921084 100.71888,280.376707 89.489714,274.320801 C78.2605481,268.264895 73.9416382,282.106966 65.3038183,276.91619 C56.6659984,271.725413 65.7357093,260.911295 57.9616714,253.125131 C50.1876335,245.338966 41.1179226,255.287954 34.2076666,248.366919 C27.2974107,241.445884 38.0946856,231.92946 33.3438846,223.278166 C28.5930837,214.626872 15.6363538,219.817648 11.7493349,212.031484 C7.86231593,204.245319 18.6595908,197.324284 17.7958088,187.80786 C16.9320268,178.291437 1.383951,180.021695 0.0882780163,170.505272 C-1.20739497,160.988848 12.1812259,158.826025 12.6131169,149.309601 C13.0450079,139.793178 0.0882780163,137.630354 0.0882780163,127.681366 C0.0882780163,117.732378 13.9087899,116.434684 17.7958088,110.811342 C21.6828278,105.188001 7.43042493,93.0761895 11.7493349,86.587719 C16.0682448,80.0992484 29.8887567,81.3969425 33.3438846,75.7736013 C36.7990126,70.1502601 29.8887567,55.8756248 34.2076666,50.6848484 C38.5265766,45.4940719 53.2108704,51.1174131 57.9616714,46.791766 C63.1443633,42.466119 60.1211263,26.8937895 65.7357093,23.0007072 C71.3502922,19.5401895 83.8751311,28.6240484 89.921605,26.0286601 C95.9680789,23.4332719 97.2637519,7.42837777 103.742117,5.69811895 C110.220482,3.96786013 113.67561,17.377366 126.200449,15.6471072 C138.725287,13.9168484 135.70205,1.37247189 145.203652,0.0747777749 C154.705254,-1.22291634 153.409581,14.7819778 164.206856,16.0796719 C175.004131,16.9448013 175.867913,4.40042483 186.665188,6.56324836 C197.462463,8.72607189 191.415989,23.4332719 200.4857,27.3263542 C209.12352,31.2194366 216.033776,20.8378837 224.671595,24.730966 C233.309415,29.0566131 226.83105,41.6009895 232.013742,48.5220248 C237.196434,55.4430601 249.289382,45.0615072 255.767747,53.2802366 C262.246112,61.498966 252.312619,69.2851307 256.631529,78.3689895 C260.950439,87.4528484 274.33906,79.234119 278.226079,89.6156719 C282.113098,99.9972248 268.292586,101.294919 272.179605,113.839295 C275.634733,126.383672 289.887136,119.030072 289.887136,131.141884 Z" id="Shape" fill="#000000"></path>
                        <path d="M96.7757977,221.629532 C80.0230489,218.361231 71.2161399,204.530053 73.5637692,190.032891 C75.7593963,176.474378 86.6863594,169.145725 100.206773,174.344241 C96.9475485,153.668622 100.770475,135.277589 110.575612,120.730194 C119.922251,106.863048 134.30105,97.2798045 150.341914,93.7794878 C166.426395,90.2696532 182.834592,93.1685688 195.869001,102.248951 C210.212714,112.241455 219.696715,129.012008 222.610111,151.417641 C226.137779,178.155153 224.754014,199.543499 219.124673,217.110181 C214.61289,231.189459 207.829,242.045652 197.721898,253.315 C195.093845,256.245261 184.682921,266.999151 182.374021,269.631288 C170.209045,283.499316 168.138253,294.917344 177.455731,314.945966 L178.078658,316.284994 L176.802815,317.028807 C170.996529,320.413858 164.564181,322.448829 157.622567,323.268833 C145.677311,324.67991 132.946247,322.494353 120.41268,317.996376 C116.952072,316.754452 113.768858,315.423618 110.932981,314.091488 C109.937708,313.623968 109.055901,313.189077 108.296354,312.797745 C108.028662,312.659825 107.794863,312.536906 107.596061,312.430353 C107.474132,312.365002 107.389417,312.318756 107.343021,312.292981 L106.084267,311.593673 L106.63114,310.261598 C110.246413,301.455497 113.357539,280.096795 113.019661,262.240727 C112.592621,239.672658 107.209613,224.634998 96.7757977,221.629532 Z" id="Shape" stroke="#252525" stroke-width="3.24000026" fill="#FFFFFF"></path>
                        <path d="M145.273028,92.4842151 C157.281142,92.2742857 150.587905,110.98891 148.860341,121.370462 C147.132777,131.752015 143.806986,128.252781 143.806986,141.229722 C146.398332,177.997722 128.803747,157.785356 124.484837,169.464603 C121.893491,175.520509 126.580887,199.723952 108.873357,181.556234 C91.1658259,163.388516 85.7314368,154.921395 85.7314368,154.921395 L145.273028,92.4842151 Z" id="Shape-Copy" fill="#000000" opacity="0.122879464" transform="translate(119.005546, 140.340881) rotate(5.000000) translate(-119.005546, -140.340881) "></path>
                        <path d="M142.528581,85.6135596 C154.536695,85.4036303 163.650783,107.340239 161.923219,117.721792 C160.195655,128.103345 143.379328,121.451877 143.379328,134.428818 C145.970674,171.196818 126.0593,150.9147 121.74039,162.593947 C119.149044,168.649853 123.45032,196.358379 105.742789,178.190662 C88.0352587,160.022944 65.5945606,155.240347 65.5945606,155.240347 C87.6929849,130.608415 104.335979,113.229968 115.523543,103.105004 C121.432428,97.7573482 130.434108,91.9268666 142.528581,85.6135596 Z" id="Shape" fill="#000000" transform="translate(113.864223, 134.944810) rotate(5.000000) translate(-113.864223, -134.944810) "></path>
                        <path d="M150.622696,102.117948 C150.622696,102.117948 153.768493,121.922375 163.655284,127.773683 C173.542075,133.624991 177.586671,121.922375 182.080667,125.52318 C186.125264,129.123985 180.421077,142.48232 188.51027,145.633024 C196.599462,148.783728 199.607251,143.527205 203.651848,148.478312 C207.696444,153.429418 207.696444,172.333644 207.696444,172.333644 L233.312221,157.030223 L211.339874,104.911915 L191.068659,79.6129174 L151.970895,79.6129174 L150.622696,102.117948 Z" id="Shape" fill="#000000" transform="translate(191.967458, 125.973281) rotate(-20.000000) translate(-191.967458, -125.973281) "></path>
                    </g>
                </g>
                <path d="M222.48307,256 C200.488965,261.998392 190.488965,293.665059 192.48307,351 C168.48307,358.333333 149.816403,356 136.48307,344 L118.48307,349 C160.48307,385 216.48307,358 219.04249,354.793632 C245.834504,360.60288 280.48307,375 313.48307,399 C317.70345,402.069367 324.332572,396.273266 329.48307,399 C302.816403,369.666667 262.649737,351.666667 208.98307,345 C201.98307,296.333333 206.48307,266.666667 222.48307,256 Z" id="shadow" fill="#000000" fill-rule="nonzero" opacity="0.072879"></path>
                <path d="M226.48307,224 C231.816403,221.333333 235.149737,222.333333 236.48307,227 C238.888261,235.41817 227.343675,242.858181 224.48307,242" id="InnerEar" stroke="#000000" stroke-width="3" fill="#E9E9E9" stroke-linecap="round"></path>
                <path d="M123.270354,226.54546 C123.183417,227.039273 123.614524,227.704335 124.677848,227.89212 C125.741172,228.079905 126.01944,227.598928 126.414138,227.333164 C127.880366,226.345903 129.619882,225.800649 131.450526,225.800649 C136.444681,225.800649 140.493243,229.855527 140.493243,234.857473 C140.493243,239.859418 136.444681,243.914296 131.450526,243.914296 C126.670602,243.914296 122.193523,248.057847 117.489912,256.244505 C116.405367,258.266999 116.571977,259.403436 117.989742,259.653816 C117.989742,259.653816 119.053066,259.841601 120.867542,256.911492 C124.837301,250.50092 128.28603,247.158531 131.450526,247.158531 C138.233632,247.158531 143.732426,241.65116 143.732426,234.857473 C143.732426,228.063785 138.233632,222.556414 131.450526,222.556414 C128.941311,222.556414 126.607844,223.310052 124.663464,224.603655 C124.062272,225.00363 123.457847,225.480477 123.270354,226.54546 Z" id="Nose" fill="#000000" fill-rule="nonzero" transform="translate(130.258623, 241.106327) rotate(170.000000) translate(-130.258623, -241.106327) "></path>
                <ellipse id="RightEye" fill="#000000" cx="160.719941" cy="210.974118" rx="6.47836493" ry="10.8141176"></ellipse>
                <ellipse id="LeftEye" fill="#000000" cx="122.929479" cy="212.055529" rx="6.47836493" ry="10.8141176"></ellipse>
            </g>
        </g>
    </g>
</svg>