<?xml version="1.0" encoding="UTF-8"?>
<svg width="34px" height="62px" viewBox="0 0 34 62" version="1.1" xmlns="http://www.w3.org/2000/svg" xmlns:xlink="http://www.w3.org/1999/xlink">
    <!-- Generator: Sketch 51.2 (57519) - http://www.bohemiancoding.com/sketch -->
    <title>Group 2</title>
    <desc>Created with Sketch.</desc>
    <defs></defs>
    <g id="Page-1" stroke="none" stroke-width="1" fill="none" fill-rule="evenodd">
        <g id="Home-Copy-2" transform="translate(-129.000000, -63.000000)" fill="#FFFFFF">
            <g id="Header" transform="translate(130.000000, 64.000000)">
                <g id="Group-2">
                    <rect id="Rectangle" x="7.13513514" y="33.9095567" width="19.027027" height="17.3223435"></rect>
                    <path d="M9.72972973,52.3011807 C9.90439026,59.1093557 12.8593452,61.319202 18.5945946,58.9307195 C24.0720721,56.6495879 26.8108108,52.6576075 26.8108108,46.9547783" id="Path-11" stroke="#000000" stroke-width="1.5" stroke-linecap="round"></path>
                    <path d="M19.6756757,20.4366229 C19.6756757,12.9516596 18.960005,6.62953887 20.3243243,3.42169748 C22.1187646,-0.79746126 27.027027,-1.49699265 27.027027,4.27712185 C27.027027,10.6251324 26.3606582,16.7204502 27.8918919,25.9968813 C29.6216216,36.4758298 32,43.960793 24.4324324,49.7349076" id="Path-4" stroke="#000000" stroke-width="1.5" stroke-linecap="round"></path>
                    <path d="M13.4054054,22.3212297 C20.7567568,13.3392738 29.3333333,29.0963775 24.8648649,36.0882156 C22.270279,40.147979 18.2731748,38.5618019 19.1351351,35.2327913 C21.4054054,26.4646915 12.6133613,23.2889573 13.4054054,22.3212297 Z" id="Path-3" stroke="#000000" stroke-width="1.5" stroke-linecap="round"></path>
                    <path d="M7.13513514,25.1013589 C14.4864865,16.119403 22.6832768,31.5697402 18.5945946,37.9728225 C16,42.0360882 12.0029046,40.4464087 12.8648649,37.1173981 C15.1351351,28.3492983 6.34309098,26.0690865 7.13513514,25.1013589 Z" id="Path-3" stroke="#000000" stroke-width="1.5" stroke-linecap="round"></path>
                    <path d="M14.0540541,52.5150368 C4.68468468,53.940744 0,46.8122076 0,31.1294275 C1.5143567e-16,26.4245935 5.83783784,23.8583203 11.2432432,28.1354422 C14.4414462,30.6660764 13.5340913,35.5212209 12.972973,39.6836712 C12.5405405,42.8915126 7.72112728,44.6427449 6.91891892,39.6836712 C6.05405405,34.3372689 7.13513514,31.9848519 2.81081081,31.7709958" id="Path-2" stroke="#000000" stroke-width="1.5" stroke-linecap="round" stroke-linejoin="round"></path>
                    <path d="M27.027027,47.3824905 C27.0526633,47.2962788 28.782393,46.3132101 30.7027027,42.0360882 C32.2603023,38.5668337 32.3480811,32.9844304 31.1351351,30.060147 C27.6756757,21.7197594 22.2920588,27.3968821 16.8648649,29.4185787 C13.9677345,30.4977955 15.7837838,35.4065493 19.2432432,34.7649811 C22.1085695,34.2335968 26.1621622,31.3432836 22.9189189,36.5156411 C22.329932,37.4549635 20.0275291,39.090684 19.2432432,40.7529517" id="Path-9" stroke="#000000" stroke-width="1.5" stroke-linecap="round"></path>
                </g>
            </g>
        </g>
    </g>
</svg>