<?xml version="1.0" encoding="UTF-8"?>
<svg width="17px" height="16px" viewBox="0 0 17 16" version="1.1" xmlns="http://www.w3.org/2000/svg" xmlns:xlink="http://www.w3.org/1999/xlink">
    <!-- Generator: Sketch 51.2 (57519) - http://www.bohemiancoding.com/sketch -->
    <title>twitter</title>
    <desc>Created with Sketch.</desc>
    <defs></defs>
    <g id="Build" stroke="none" stroke-width="1" fill="none" fill-rule="evenodd">
        <g id="Home" transform="translate(-130.000000, -2277.000000)">
            <g id="Footer" transform="translate(0.000000, 2023.000000)">
                <g id="Left" transform="translate(129.000000, 100.000000)">
                    <g id="Socials" transform="translate(1.000000, 154.000000)">
                        <g id="twitter">
                            <rect id="Rectangle-16" fill="#FFFFFF" opacity="0.0148995536" x="0" y="0.666666667" width="17" height="15"></rect>
                            <path d="M16.9667097,3.33386306 C16.3398608,3.61304489 15.6705137,3.80323303 14.9657514,3.89007365 C15.6839715,3.4515644 16.2364485,2.76042788 16.4978126,1.93580082 C15.8242157,2.33411938 15.0776634,2.62406657 14.2829465,2.78554707 C13.6483063,2.09728132 12.7438023,1.66666667 11.7394275,1.66666667 C9.81496604,1.66666667 8.25457273,3.24774013 8.25457273,5.19555373 C8.25457273,5.47545326 8.2864464,5.74458741 8.34452731,6.00223851 C5.44756468,5.86372413 2.87996333,4.45417884 1.16161827,2.32335401 C0.859172534,2.84152697 0.689887921,3.44366979 0.689887921,4.09963945 C0.689887921,5.3268912 1.30611225,6.4055809 2.23965668,7.03930213 C1.6680555,7.02064216 1.1304529,6.86131474 0.661555769,6.59720442 L0.661555769,6.64098358 C0.661555769,8.35267682 1.86071414,9.78016439 3.45652264,10.1052784 C3.16399317,10.1849422 2.8551727,10.2280036 2.53856089,10.2280036 C2.31615349,10.2280036 2.10295404,10.2064729 1.88975459,10.1662822 C2.3366943,11.5679329 3.62155744,12.589925 5.15078538,12.6186326 C3.96083497,13.5652672 2.45285613,14.1293724 0.82871547,14.1293724 C0.55247698,14.1293724 0.276946794,14.1128655 0,14.0812871 C1.55047706,15.0817484 3.37719262,15.6666667 5.35265197,15.6666667 C11.7656348,15.6666667 15.2681972,10.2868543 15.2681972,5.62903915 C15.2681972,5.47904171 15.2681972,5.32760889 15.2575726,5.17689376 C15.9382526,4.68240461 16.5325195,4.05729567 17,3.34821688 L16.9667097,3.33386306 Z" id="Shape" fill="#5700FF" fill-rule="nonzero"></path>
                        </g>
                    </g>
                </g>
            </g>
        </g>
    </g>
</svg>